<?xml version="1.0" standalone="no"?>
<!DOCTYPE svg PUBLIC "-//W3C//DTD SVG 20010904//EN"
 "http://www.w3.org/TR/2001/REC-SVG-20010904/DTD/svg10.dtd">
<svg version="1.0" xmlns="http://www.w3.org/2000/svg"
 width="248.000000pt" height="244.000000pt" viewBox="0 0 248.000000 244.000000"
 preserveAspectRatio="xMidYMid meet">

<g transform="translate(0.000000,244.000000) scale(0.100000,-0.100000)"
fill="#000000" stroke="none">
<path d="M277 2399 c-80 -19 -162 -82 -200 -153 l-22 -41 0 -765 0 -765 27
-45 c34 -58 83 -104 133 -127 34 -15 78 -19 305 -23 l265 -5 5 -206 c5 -221
10 -239 57 -239 16 0 119 72 305 213 155 116 289 217 297 222 10 6 170 12 401
15 371 5 386 6 425 27 55 29 102 78 133 138 l27 50 0 745 c0 744 0 745 -22
792 -28 62 -101 131 -160 155 -45 17 -100 18 -993 20 -534 1 -961 -3 -983 -8z
m1922 -233 c21 -19 21 -20 21 -732 l0 -713 -26 -20 c-26 -20 -37 -21 -413 -21
l-386 0 -180 -135 c-99 -74 -183 -135 -187 -135 -4 0 -9 60 -10 133 l-3 132
-353 5 -354 5 -19 24 c-18 22 -19 49 -19 723 0 476 3 706 11 719 6 11 20 24
32 29 12 5 424 8 943 7 891 -2 923 -3 943 -21z"/>
</g>
</svg>
